<svg width="401" height="446" viewBox="0 0 401 446" fill="none" xmlns="http://www.w3.org/2000/svg">
<path d="M363 209.25C358.582 209.25 355 205.668 355 201.25V104.475C355 103.054 353.561 102.087 352.245 102.623L294.608 126.117C298.046 140.338 298.212 155.154 295.091 169.449C291.971 183.743 285.647 197.143 276.595 208.638C267.544 220.133 256.001 229.423 242.837 235.808C229.673 242.194 215.231 245.507 200.6 245.5C185.969 245.507 171.527 242.194 158.363 235.808C145.199 229.423 133.656 220.133 124.604 208.638C115.553 197.143 109.228 183.743 106.108 169.449C102.988 155.154 103.153 140.338 106.591 126.117L44.4096 102.061C30.961 96.8582 30.7169 77.9177 44.027 72.3701L198.138 8.13786C202.179 6.45336 206.734 6.49877 210.742 8.26348L362.949 75.2937C368.753 77.85 372.5 83.5939 372.5 89.9366V148.833L392.537 198.244C394.67 203.504 390.799 209.25 385.123 209.25H363ZM207.755 169.422C203.251 171.675 197.949 171.675 193.444 169.422L152.266 148.833C152.266 175.417 174.016 197.167 200.6 197.167C227.183 197.167 248.933 175.417 248.933 148.833L207.755 169.422ZM302 87.6917L204.466 48L106.591 87.6917L200.6 126.117L302 87.6917ZM200.6 269.667C265.125 269.667 393.933 301.808 393.933 366.333V422.833C393.933 431.67 386.77 438.833 377.933 438.833H23.2664C14.4299 438.833 7.26645 431.67 7.26645 422.833V366.333C7.26645 301.808 136.075 269.667 200.6 269.667ZM200.6 315.583C128.1 315.583 53.1831 350.867 53.1831 366.333V392.917H348.016V366.333C348.016 350.867 272.375 315.583 200.6 315.583Z" fill="#E80049" stroke="#F1F1F1" stroke-width="13"/>
</svg>
