<svg width="113" height="113" viewBox="0 0 113 113" fill="none" xmlns="http://www.w3.org/2000/svg">
<g clip-path="url(#clip0_1283_77)">
<path d="M100.914 22.8873L72.6636 95.8665C72.3842 96.5893 71.9307 97.232 71.3433 97.7375C70.7559 98.243 70.0528 98.5956 69.2964 98.7642C68.54 98.9328 67.7537 98.9121 67.0073 98.704C66.2608 98.4958 65.5773 98.1066 65.0173 97.5709L49.0937 82.3394L39.3286 92.0998C38.9991 92.4283 38.5797 92.6518 38.1233 92.742C37.6669 92.8323 37.1939 92.7853 36.7642 92.6069C36.3345 92.4286 35.9673 92.1269 35.7089 91.74C35.4505 91.3531 35.3125 90.8983 35.3124 90.4331V69.1561L10.8715 45.7792C10.265 45.1991 9.82471 44.4674 9.59607 43.6599C9.36743 42.8524 9.35877 41.9984 9.57101 41.1864C9.78325 40.3745 10.2087 39.634 10.8032 39.0417C11.3977 38.4493 12.1398 38.0267 12.9525 37.8174L95.3484 16.6299C96.1861 16.4154 97.0667 16.4356 97.8936 16.6885C98.7205 16.9413 99.4619 17.4171 100.036 18.0634C100.611 18.7098 100.996 19.5019 101.15 20.3529C101.304 21.2038 101.22 22.0807 100.909 22.8873H100.914ZM89.4582 28.2548L37.8172 61.9241L45.9862 69.7399L89.4582 28.2548Z" fill="#618CFA"/>
</g>
<defs>
<clipPath id="clip0_1283_77">
<rect width="113" height="113" fill="white"/>
</clipPath>
</defs>
</svg>
