<svg width="113" height="113" viewBox="0 0 113 113" fill="none" xmlns="http://www.w3.org/2000/svg">
<g clip-path="url(#clip0_1283_82)">
<path d="M95.3437 16.6299C96.182 16.4131 97.0638 16.4317 97.8923 16.6836C98.7207 16.9355 99.4637 17.411 100.039 18.0578C100.615 18.7046 101.001 19.4976 101.156 20.3496C101.31 21.2017 101.226 22.0798 100.914 22.8873L72.6636 95.8665C72.3842 96.5893 71.9307 97.232 71.3433 97.7375C70.7559 98.243 70.0528 98.5956 69.2964 98.7642C68.54 98.9328 67.7537 98.9121 67.0073 98.704C66.2608 98.4958 65.5773 98.1066 65.0173 97.5709L49.0937 82.3394L43.4296 87.9989C40.4351 90.9934 35.3124 88.8746 35.3124 84.6371V69.1561L10.8715 45.7792C10.265 45.1991 9.82471 44.4674 9.59607 43.6599C9.36743 42.8524 9.35877 41.9984 9.57101 41.1864C9.78325 40.3745 10.2087 39.634 10.8032 39.0417C11.3977 38.4493 12.1398 38.0267 12.9525 37.8174L95.3437 16.6299ZM85.3902 36.8993L47.733 68.0073L66.4251 85.8895L85.3902 36.8993ZM77.9605 30.8256L23.4992 44.8234L40.8824 61.4439L77.9605 30.8162V30.8256Z" fill="#618CFA"/>
</g>
<defs>
<clipPath id="clip0_1283_82">
<rect width="113" height="113" fill="white"/>
</clipPath>
</defs>
</svg>
