<svg width="416" height="333" viewBox="0 0 416 333" fill="none" xmlns="http://www.w3.org/2000/svg">
<path d="M351.989 27.6743C325.641 14.774 297.115 5.41079 267.4 0.000957087C267.139 -0.00779443 266.88 0.0435591 266.64 0.151408C266.401 0.259257 266.186 0.420981 266.013 0.625173C262.447 7.4915 258.287 16.4385 255.514 23.3049C223.996 18.3112 191.943 18.3112 160.425 23.3049C157.652 16.2305 153.492 7.4915 149.728 0.625173C149.53 0.209032 148.935 0.000957087 148.341 0.000957087C118.626 5.41079 90.2975 14.774 63.752 27.6743C63.5539 27.6743 63.3559 27.8824 63.1578 28.0905C9.27436 112.775 -5.58319 195.171 1.74654 276.735C1.74654 277.151 1.94464 277.567 2.34084 277.775C37.999 305.24 72.2704 321.886 106.146 332.914C106.74 333.122 107.334 332.914 107.532 332.498C115.456 321.054 122.588 308.986 128.729 296.293C129.125 295.461 128.729 294.629 127.937 294.421C116.645 289.843 105.947 284.433 95.4482 278.191C94.6558 277.775 94.6558 276.527 95.2501 275.902C97.4292 274.238 99.6083 272.365 101.787 270.701C102.184 270.285 102.778 270.285 103.174 270.493C171.321 303.16 244.816 303.16 312.17 270.493C312.567 270.285 313.161 270.285 313.557 270.701C315.736 272.573 317.915 274.238 320.094 276.111C320.887 276.735 320.887 277.983 319.896 278.399C309.595 284.849 298.699 290.051 287.408 294.629C286.615 294.837 286.417 295.877 286.615 296.501C292.955 309.194 300.086 321.262 307.812 332.706C308.406 332.914 309.001 333.122 309.595 332.914C343.668 321.886 377.94 305.24 413.598 277.775C413.994 277.567 414.192 277.151 414.192 276.735C422.909 182.479 399.731 100.707 352.781 28.0905C352.583 27.8824 352.385 27.6743 351.989 27.6743ZM139.03 227.006C118.626 227.006 101.589 207.239 101.589 182.895C101.589 158.551 118.23 138.784 139.03 138.784C160.029 138.784 176.669 158.759 176.471 182.895C176.471 207.239 159.831 227.006 139.03 227.006ZM277.106 227.006C256.702 227.006 239.665 207.239 239.665 182.895C239.665 158.551 256.306 138.784 277.106 138.784C298.105 138.784 314.746 158.759 314.547 182.895C314.547 207.239 298.105 227.006 277.106 227.006Z" fill="#7A1DF1"/>
</svg>
