<svg width="94" height="93" viewBox="0 0 94 93" fill="none" xmlns="http://www.w3.org/2000/svg">
<path d="M76.7667 81.375L52.0917 56.9625C50.1333 58.5125 47.8813 59.7396 45.3354 60.6437C42.7896 61.5479 40.0806 62 37.2083 62C30.0931 62 24.0718 59.5613 19.1447 54.684C14.2175 49.8067 11.7526 43.8495 11.75 36.8125C11.7474 29.7755 14.2123 23.8183 19.1447 18.941C24.0771 14.0637 30.0983 11.625 37.2083 11.625C44.3184 11.625 50.3409 14.0637 55.2759 18.941C60.2109 23.8183 62.6745 29.7755 62.6667 36.8125C62.6667 39.6542 62.2097 42.3344 61.2958 44.8531C60.3819 47.3719 59.1417 49.6 57.575 51.5375L82.25 75.95L76.7667 81.375ZM37.2083 54.25C42.1042 54.25 46.2663 52.5553 49.6947 49.166C53.1231 45.7767 54.8359 41.6588 54.8333 36.8125C54.8307 31.9662 53.1178 27.8496 49.6947 24.4629C46.2715 21.0761 42.1094 19.3802 37.2083 19.375C32.3073 19.3698 28.1465 21.0658 24.7259 24.4629C21.3054 27.86 19.5912 31.9765 19.5833 36.8125C19.5755 41.6485 21.2897 45.7663 24.7259 49.166C28.1621 52.5657 32.3229 54.2603 37.2083 54.25Z" fill="#E70149"/>
</svg>
