<svg width="260" height="214" viewBox="0 0 260 214" fill="none" xmlns="http://www.w3.org/2000/svg">
<path d="M240 -8H20C14.6957 -8 9.60859 -5.87371 5.85786 -2.08888C2.10714 1.69594 0 6.82927 0 12.1818V193.818C0 199.171 2.10714 204.304 5.85786 208.089C9.60859 211.874 14.6957 214 20 214H36.7375C38.6301 214.001 40.484 213.459 42.0838 212.439C43.6836 211.418 44.9636 209.961 45.775 208.236C50.6377 197.876 58.3151 189.122 67.9143 182.992C77.5135 176.862 88.6401 173.607 100 173.607C111.36 173.607 122.486 176.862 132.086 182.992C141.685 189.122 149.362 197.876 154.225 208.236C155.036 209.961 156.316 211.418 157.916 212.439C159.516 213.459 161.37 214.001 163.262 214H240C245.304 214 250.391 211.874 254.142 208.089C257.893 204.304 260 199.171 260 193.818V12.1818C260 6.82927 257.893 1.69594 254.142 -2.08888C250.391 -5.87371 245.304 -8 240 -8ZM100 153.455C92.0887 153.455 84.3552 151.087 77.7772 146.652C71.1992 142.217 66.0723 135.913 63.0448 128.537C60.0173 121.162 59.2252 113.046 60.7686 105.216C62.312 97.3866 66.1216 90.1945 71.7157 84.5495C77.3098 78.9045 84.4371 75.0603 92.1964 73.5028C99.9556 71.9454 107.998 72.7447 115.307 75.7998C122.616 78.8548 128.864 84.0283 133.259 90.6661C137.654 97.3038 140 105.108 140 113.091C140 123.796 135.786 134.063 128.284 141.632C120.783 149.202 110.609 153.455 100 153.455ZM240 193.818H169.287C164.927 186.234 159.371 179.417 152.837 173.636H210C212.652 173.636 215.196 172.573 217.071 170.681C218.946 168.788 220 166.222 220 163.545V42.4545C220 39.7783 218.946 37.2116 217.071 35.3192C215.196 33.4268 212.652 32.3636 210 32.3636H50C47.3478 32.3636 44.8043 33.4268 42.9289 35.3192C41.0536 37.2116 40 39.7783 40 42.4545V163.545C39.9989 165.783 40.7351 167.958 42.0928 169.728C43.4505 171.498 45.3526 172.762 47.5 173.321C40.8148 179.165 35.1413 186.092 30.7125 193.818H20V12.1818H240V193.818Z" fill="#4B383E"/>
</svg>
