<svg width="167" height="166" viewBox="0 0 167 166" fill="none" xmlns="http://www.w3.org/2000/svg">
<g clip-path="url(#clip0_660_18)">
<path d="M0.5 83C0.5 60.987 9.24462 39.8757 24.8101 24.3101C40.3757 8.74462 61.487 0 83.5 0C105.513 0 126.624 8.74462 142.19 24.3101C157.755 39.8757 166.5 60.987 166.5 83C166.5 105.013 157.755 126.124 142.19 141.69C126.624 157.255 105.513 166 83.5 166C61.487 166 40.3757 157.255 24.8101 141.69C9.24462 126.124 0.5 105.013 0.5 83ZM83.5 15.5625C65.6145 15.5625 48.4615 22.6675 35.8145 35.3145C23.1675 47.9615 16.0625 65.1145 16.0625 83C16.0625 100.886 23.1675 118.039 35.8145 130.686C48.4615 143.333 65.6145 150.438 83.5 150.438C101.386 150.438 118.539 143.333 131.186 130.686C143.833 118.039 150.938 100.886 150.938 83C150.938 65.1145 143.833 47.9615 131.186 35.3145C118.539 22.6675 101.386 15.5625 83.5 15.5625ZM72.295 63.1319C71.3732 64.9782 69.7661 66.3828 67.8087 67.0365C65.8514 67.6903 63.7145 67.5397 61.8681 66.6179C60.0218 65.6961 58.6173 64.0786 57.9635 62.1212C57.3097 60.1639 57.4603 58.027 58.3821 56.1806C60.1355 52.6635 62.9056 48.9078 67.1905 46.0443C71.5169 43.16 76.9534 41.5 83.5 41.5C89.5968 41.4612 95.5468 43.3695 100.484 46.9469C105.702 50.8582 109.438 56.9588 109.438 64.8438C109.438 69.4918 108.244 73.455 106.024 76.775C103.897 79.9601 101.148 82.0974 98.8446 83.6432C97.7138 84.3903 96.5621 85.075 95.5973 85.6664L95.535 85.7079C94.6219 86.2382 93.7224 86.7917 92.8375 87.3679C91.7336 88.0302 90.7625 88.8921 89.974 89.9098C88.8188 91.6019 87.0428 92.7702 85.0315 93.161C83.0202 93.5518 80.936 93.1335 79.2312 91.9969C77.5264 90.8604 76.3387 89.0974 75.9258 87.0905C75.513 85.0836 75.9083 82.9949 77.026 81.2777C78.935 78.5387 81.3835 76.2044 84.2055 74.4199C85.2707 73.7282 86.3531 73.0538 87.4529 72.3968L87.5255 72.3552C88.563 71.7224 89.4137 71.214 90.2022 70.6849C91.3099 70.0236 92.2845 69.1616 93.0761 68.143C93.46 67.5827 93.875 66.6801 93.875 64.8438C93.9163 63.7805 93.6889 62.7241 93.2138 61.772C92.7387 60.82 92.0312 60.0031 91.1567 59.3969C88.9083 57.8436 86.2326 57.0278 83.5 57.0625C79.6716 57.0625 77.3269 57.9962 75.8225 59.0026C74.3009 60.0414 73.0833 61.4667 72.295 63.1319ZM93.875 114.125C93.875 116.877 92.7819 119.516 90.8362 121.461C88.8905 123.407 86.2516 124.5 83.5 124.5C80.7484 124.5 78.1095 123.407 76.1638 121.461C74.2181 119.516 73.125 116.877 73.125 114.125C73.125 111.373 74.2181 108.734 76.1638 106.789C78.1095 104.843 80.7484 103.75 83.5 103.75C86.2516 103.75 88.8905 104.843 90.8362 106.789C92.7819 108.734 93.875 111.373 93.875 114.125Z" fill="#E80049"/>
</g>
<defs>
<clipPath id="clip0_660_18">
<rect width="166" height="166" fill="white" transform="translate(0.5)"/>
</clipPath>
</defs>
</svg>
