<svg width="248" height="249" viewBox="0 0 248 249" fill="none" xmlns="http://www.w3.org/2000/svg">
<rect width="248" height="248" transform="translate(0 0.5)" fill="#F1F1F1"/>
<path d="M124 24C113.391 24 103.217 28.2353 95.7157 35.7743C88.2143 43.3133 84 53.5383 84 64.2C84 74.8617 88.2143 85.0867 95.7157 92.6257C103.217 100.165 113.391 104.4 124 104.4C134.609 104.4 144.783 100.165 152.284 92.6257C159.786 85.0867 164 74.8617 164 64.2C164 53.5383 159.786 43.3133 152.284 35.7743C144.783 28.2353 134.609 24 124 24ZM174 124.5H74C66.0435 124.5 58.4129 127.677 52.7868 133.331C47.1607 138.985 44 146.654 44 154.65C44 177.082 53.18 195.051 68.24 207.211C83.06 219.171 102.94 225 124 225C145.06 225 164.94 219.171 179.76 207.211C194.8 195.051 204 177.082 204 154.65C204 146.654 200.839 138.985 195.213 133.331C189.587 127.677 181.956 124.5 174 124.5Z" fill="#E80049"/>
</svg>
