<svg width="500" height="424" viewBox="0 0 500 424" fill="none" xmlns="http://www.w3.org/2000/svg">
<path d="M461.538 0.461548H38.4615C28.2609 0.461548 18.4781 4.51373 11.2651 11.7267C4.05218 18.9396 0 28.7225 0 38.9231V385.077C0 395.278 4.05218 405.06 11.2651 412.273C18.4781 419.486 28.2609 423.538 38.4615 423.538H70.649C74.2886 423.54 77.8538 422.508 80.9303 420.563C84.0069 418.619 86.4684 415.841 88.0288 412.553C97.3803 392.809 112.144 376.127 130.604 364.444C149.064 352.762 170.462 346.56 192.308 346.56C214.154 346.56 235.551 352.762 254.011 364.444C272.471 376.127 287.235 392.809 296.587 412.553C298.147 415.841 300.609 418.619 303.685 420.563C306.762 422.508 310.327 423.54 313.966 423.538H461.538C471.739 423.538 481.522 419.486 488.735 412.273C495.948 405.06 500 395.278 500 385.077V38.9231C500 28.7225 495.948 18.9396 488.735 11.7267C481.522 4.51373 471.739 0.461548 461.538 0.461548ZM192.308 308.154C177.094 308.154 162.221 303.642 149.572 295.19C136.922 286.738 127.062 274.724 121.24 260.668C115.418 246.612 113.895 231.145 116.863 216.224C119.831 201.302 127.157 187.596 137.915 176.838C148.673 166.08 162.379 158.754 177.301 155.786C192.222 152.818 207.689 154.341 221.745 160.163C235.801 165.985 247.814 175.845 256.267 188.495C264.719 201.145 269.231 216.017 269.231 231.231C269.231 251.632 261.126 271.198 246.701 285.624C232.275 300.049 212.709 308.154 192.308 308.154ZM461.538 377.077C461.538 381.495 457.957 385.077 453.538 385.077H325.553C317.167 370.623 306.482 357.633 293.918 346.615H403.846C408.946 346.615 413.838 344.589 417.444 340.983C421.051 337.376 423.077 332.485 423.077 327.385V96.6154C423.077 91.5151 421.051 86.6237 417.444 83.0172C413.838 79.4107 408.946 77.3846 403.846 77.3846H96.1538C91.0535 77.3846 86.1621 79.4107 82.5556 83.0172C78.9492 86.6237 76.9231 91.5151 76.9231 96.6154V327.385C76.9209 331.65 78.3367 335.794 80.9476 339.167C83.5586 342.539 87.2165 344.948 91.3461 346.014C78.49 357.152 67.5795 370.353 59.0625 385.077H46.4615C42.0433 385.077 38.4615 381.495 38.4615 377.077V46.9231C38.4615 42.5048 42.0433 38.9231 46.4615 38.9231H453.538C457.957 38.9231 461.538 42.5048 461.538 46.9231V377.077Z" fill="#E80049"/>
</svg>
