<svg width="40" height="34" viewBox="0 0 40 34" fill="none" xmlns="http://www.w3.org/2000/svg">
<path d="M36.9231 0H3.07692C2.26087 0 1.47824 0.325287 0.90121 0.904301C0.324175 1.48332 0 2.26863 0 3.08748V30.8748C0 31.6936 0.324175 32.4789 0.90121 33.058C1.47824 33.637 2.26087 33.9623 3.07692 33.9623H5.65192C5.94309 33.9624 6.22831 33.8795 6.47443 33.7234C6.72055 33.5673 6.91747 33.3444 7.04231 33.0804C7.79042 31.4955 8.97156 30.1563 10.4484 29.2185C11.9252 28.2807 13.6369 27.7829 15.3846 27.7829C17.1323 27.7829 18.8441 28.2807 20.3209 29.2185C21.7977 30.1563 22.9788 31.4955 23.7269 33.0804C23.8518 33.3444 24.0487 33.5673 24.2948 33.7234C24.5409 33.8795 24.8261 33.9624 25.1173 33.9623H36.9231C37.7391 33.9623 38.5218 33.637 39.0988 33.058C39.6758 32.4789 40 31.6936 40 30.8748V3.08748C40 2.26863 39.6758 1.48332 39.0988 0.904301C38.5218 0.325287 37.7391 0 36.9231 0ZM15.3846 24.6998C14.1675 24.6998 12.9777 24.3377 11.9657 23.6592C10.9537 22.9806 10.165 22.0163 9.6992 20.8879C9.23343 19.7596 9.11157 18.518 9.34901 17.3202C9.58646 16.1224 10.1726 15.0221 11.0332 14.1585C11.8938 13.2949 12.9903 12.7068 14.1841 12.4686C15.3778 12.2303 16.6151 12.3526 17.7396 12.82C18.8641 13.2873 19.8252 14.0788 20.5014 15.0942C21.1775 16.1097 21.5385 17.3036 21.5385 18.5249C21.5385 20.1626 20.8901 21.7332 19.736 22.8912C18.582 24.0493 17.0167 24.6998 15.3846 24.6998ZM36.9231 30.8748H26.0442C25.3733 29.7145 24.5186 28.6717 23.5135 27.7873H32.3077C32.7157 27.7873 33.107 27.6247 33.3955 27.3352C33.6841 27.0457 33.8462 26.653 33.8462 26.2436V7.7187C33.8462 7.30927 33.6841 6.91662 33.3955 6.62711C33.107 6.3376 32.7157 6.17496 32.3077 6.17496H7.69231C7.28428 6.17496 6.89297 6.3376 6.60445 6.62711C6.31593 6.91662 6.15385 7.30927 6.15385 7.7187V26.2436C6.15367 26.5859 6.26693 26.9187 6.47581 27.1894C6.68469 27.4601 6.97732 27.6535 7.30769 27.7391C6.2792 28.6331 5.40636 29.6929 4.725 30.8748H3.07692V3.08748H36.9231V30.8748Z" fill="white"/>
</svg>
