<svg width="358" height="333" viewBox="0 0 358 333" fill="none" xmlns="http://www.w3.org/2000/svg">
<path d="M205.499 107.368C215.548 105.506 224.864 100.837 232.371 93.9019C239.878 86.9666 245.268 78.0481 247.919 68.1777C250.569 58.3073 250.372 47.8882 247.349 38.1253C244.326 28.3625 238.602 19.6547 230.837 13.0089C223.073 6.36309 213.586 2.05082 203.474 0.570743C193.361 -0.909331 183.037 0.503252 173.694 4.64514C164.35 8.78702 156.37 15.489 150.677 23.9761C144.983 32.4631 141.807 42.3886 141.518 52.6046H167.871C188.653 52.6046 205.499 69.4498 205.499 90.2322V107.368ZM109.416 280.473H167.871C188.653 280.473 205.499 263.628 205.499 242.846V124.885H267.756C271.902 124.99 275.837 126.736 278.697 129.739C281.557 132.741 283.109 136.756 283.013 140.902V236.962C283.59 261.835 274.271 285.92 257.103 303.927C239.935 321.933 216.322 332.39 191.45 333C155.254 332.105 124.337 310.853 109.416 280.429V280.473ZM349.611 70.8144C349.611 75.7337 348.642 80.6048 346.76 85.1497C344.877 89.6945 342.118 93.8241 338.639 97.3025C335.161 100.781 331.031 103.54 326.486 105.423C321.942 107.305 317.071 108.274 312.151 108.274C307.232 108.274 302.361 107.305 297.816 105.423C293.271 103.54 289.142 100.781 285.663 97.3025C282.185 93.8241 279.425 89.6945 277.543 85.1497C275.66 80.6048 274.691 75.7337 274.691 70.8144C274.691 60.8794 278.638 51.3514 285.663 44.3263C292.688 37.3012 302.216 33.3545 312.151 33.3545C322.086 33.3545 331.614 37.3012 338.639 44.3263C345.664 51.3514 349.611 60.8794 349.611 70.8144ZM299.545 283.068L296.861 283.024C302.829 268.33 305.729 252.572 305.384 236.716V141.126C305.471 135.539 304.325 130.001 302.028 124.907H342.117C350.841 124.907 357.933 131.998 357.933 140.723V224.949C357.921 240.36 351.794 255.136 340.897 266.033C330 276.929 315.224 283.057 299.814 283.068H299.545Z" fill="#2558DC"/>
<path d="M15.2569 74.9789H167.87C176.304 74.9789 183.127 81.802 183.127 90.2358V242.849C183.133 244.854 182.743 246.841 181.978 248.695C181.213 250.549 180.09 252.233 178.672 253.651C177.254 255.069 175.57 256.192 173.716 256.957C171.862 257.721 169.876 258.112 167.87 258.106H15.2569C13.2517 258.112 11.2651 257.721 9.41141 256.957C7.55769 256.192 5.87344 255.069 4.45553 253.651C3.03762 252.233 1.91403 250.549 1.1494 248.695C0.384759 246.841 -0.00584043 244.854 6.59967e-05 242.849V90.2134C6.59967e-05 81.7796 6.82315 74.9789 15.2569 74.9789ZM131.719 133.053V116.946H51.4081V133.053H81.7653V216.161H101.228V133.053H131.719Z" fill="#2558DC"/>
</svg>
