<svg width="500" height="467" viewBox="0 0 500 467" fill="none" xmlns="http://www.w3.org/2000/svg">
<g clip-path="url(#clip0_587_66)">
<path d="M250 0L500 100.012V133.349H466.667C466.667 137.864 464.887 141.77 461.328 145.069C457.769 148.368 453.559 150.018 448.698 150.018H51.3021C46.441 150.018 42.2309 148.368 38.6719 145.069C35.1128 141.77 33.3333 137.864 33.3333 133.349H0V100.012L250 0ZM66.6667 166.686H133.333V366.71H166.667V166.686H233.333V366.71H266.667V166.686H333.333V366.71H366.667V166.686H433.333V366.71H448.698C453.559 366.71 457.769 368.36 461.328 371.659C464.887 374.958 466.667 378.864 466.667 383.379V400.047H33.3333V383.379C33.3333 378.864 35.1128 374.958 38.6719 371.659C42.2309 368.36 46.441 366.71 51.3021 366.71H66.6667V166.686ZM482.031 416.716C486.892 416.716 491.102 418.366 494.661 421.665C498.22 424.964 500 428.87 500 433.385V466.722H0V433.385C0 428.87 1.77951 424.964 5.33854 421.665C8.89757 418.366 13.1076 416.716 17.9688 416.716H482.031Z" fill="#E80049"/>
</g>
<defs>
<clipPath id="clip0_587_66">
<rect width="500" height="466.722" fill="white"/>
</clipPath>
</defs>
</svg>
