<svg width="334" height="333" viewBox="0 0 334 333" fill="none" xmlns="http://www.w3.org/2000/svg">
<path d="M308.948 77.0043C258.997 -0.00254761 157.015 -22.8965 77.927 24.9726C0.920187 72.8418 -24.055 176.905 25.8954 253.912L30.0579 260.156L13.4078 322.594L75.8458 305.944L82.0896 310.106C109.146 324.675 138.284 333 167.421 333C198.64 333 229.859 324.675 256.916 308.025C333.923 258.074 356.817 156.092 308.948 77.0043ZM265.241 237.262C256.916 249.749 246.51 258.074 231.941 260.156C223.616 260.156 213.209 264.318 171.584 247.668C136.202 231.018 107.065 203.962 86.2521 172.743C73.7645 158.174 67.5207 139.442 65.4394 120.711C65.4394 104.061 71.6832 89.4919 82.0896 79.0856C86.2521 74.923 90.4146 72.8418 94.5771 72.8418H104.983C109.146 72.8418 113.309 72.8418 115.39 81.1668C119.552 91.5732 129.959 116.548 129.959 118.63C132.04 120.711 132.04 124.873 129.959 126.955C132.04 131.117 129.959 135.28 127.877 137.361C125.796 139.442 123.715 143.605 121.634 145.686C117.471 147.767 115.39 151.93 117.471 156.092C125.796 168.58 136.202 181.068 146.609 191.474C159.096 201.88 171.584 210.205 186.153 216.449C190.315 218.53 194.478 218.53 196.559 214.368C198.64 210.205 209.047 199.799 213.209 195.636C217.372 191.474 219.453 191.474 223.616 193.555L256.916 210.205C261.078 212.287 265.241 214.368 267.322 216.449C269.403 222.693 269.403 231.018 265.241 237.262Z" fill="#2ADA7D"/>
</svg>
